<mxfile host="app.diagrams.net" modified="2020-12-21T04:14:43.264Z" agent="5.0 (Windows NT 10.0; Win64; x64) AppleWebKit/537.36 (KHTML, like Gecko) Chrome/87.0.4280.88 Safari/537.36" etag="dUxuyM6yGuQF9JxTsAbz" version="14.0.1" type="github" pages="4">
  <diagram name="기존 테스트 환경 이용" id="e3a06f82-3646-2815-327d-82caf3d4e204">
    <mxGraphModel dx="861" dy="708" grid="1" gridSize="10" guides="1" tooltips="1" connect="1" arrows="1" fold="1" page="1" pageScale="1.5" pageWidth="1169" pageHeight="826" background="none" math="0" shadow="0">
      <root>
        <mxCell id="0" style=";html=1;" />
        <mxCell id="1" style=";html=1;" parent="0" />
        <mxCell id="XFZ9LQP_6vd32AAqSW2_-2" value="" style="rounded=1;whiteSpace=wrap;html=1;" vertex="1" parent="1">
          <mxGeometry x="370" y="280" width="230" height="170" as="geometry" />
        </mxCell>
        <mxCell id="XFZ9LQP_6vd32AAqSW2_-3" value="192.168.15.71" style="text;html=1;strokeColor=none;fillColor=none;align=center;verticalAlign=middle;whiteSpace=wrap;rounded=0;" vertex="1" parent="1">
          <mxGeometry x="500" y="310" width="100" height="20" as="geometry" />
        </mxCell>
        <mxCell id="XFZ9LQP_6vd32AAqSW2_-4" value="192.168.17.2" style="text;html=1;strokeColor=none;fillColor=none;align=center;verticalAlign=middle;whiteSpace=wrap;rounded=0;" vertex="1" parent="1">
          <mxGeometry x="370" y="310" width="100" height="20" as="geometry" />
        </mxCell>
        <mxCell id="XFZ9LQP_6vd32AAqSW2_-5" value="media server" style="rounded=1;whiteSpace=wrap;html=1;" vertex="1" parent="1">
          <mxGeometry x="690" y="335" width="120" height="80" as="geometry" />
        </mxCell>
        <mxCell id="XFZ9LQP_6vd32AAqSW2_-7" value="proxy server" style="ellipse;whiteSpace=wrap;html=1;" vertex="1" parent="1">
          <mxGeometry x="425" y="340" width="120" height="80" as="geometry" />
        </mxCell>
        <mxCell id="XFZ9LQP_6vd32AAqSW2_-8" value="" style="rounded=1;whiteSpace=wrap;html=1;" vertex="1" parent="1">
          <mxGeometry x="70" y="270" width="230" height="210" as="geometry" />
        </mxCell>
        <mxCell id="XFZ9LQP_6vd32AAqSW2_-9" value="192.168.17.1" style="text;html=1;strokeColor=none;fillColor=none;align=center;verticalAlign=middle;whiteSpace=wrap;rounded=0;" vertex="1" parent="1">
          <mxGeometry x="130" y="290" width="100" height="20" as="geometry" />
        </mxCell>
        <mxCell id="XFZ9LQP_6vd32AAqSW2_-16" value="" style="group" vertex="1" connectable="0" parent="1">
          <mxGeometry x="95" y="320" width="170" height="130" as="geometry" />
        </mxCell>
        <mxCell id="XFZ9LQP_6vd32AAqSW2_-11" value="" style="ellipse;whiteSpace=wrap;html=1;" vertex="1" parent="XFZ9LQP_6vd32AAqSW2_-16">
          <mxGeometry x="50" y="50" width="120" height="80" as="geometry" />
        </mxCell>
        <mxCell id="XFZ9LQP_6vd32AAqSW2_-12" value="" style="ellipse;whiteSpace=wrap;html=1;" vertex="1" parent="XFZ9LQP_6vd32AAqSW2_-16">
          <mxGeometry x="40" y="40" width="120" height="80" as="geometry" />
        </mxCell>
        <mxCell id="XFZ9LQP_6vd32AAqSW2_-13" value="" style="ellipse;whiteSpace=wrap;html=1;" vertex="1" parent="XFZ9LQP_6vd32AAqSW2_-16">
          <mxGeometry x="30" y="30" width="120" height="80" as="geometry" />
        </mxCell>
        <mxCell id="XFZ9LQP_6vd32AAqSW2_-14" value="" style="ellipse;whiteSpace=wrap;html=1;" vertex="1" parent="XFZ9LQP_6vd32AAqSW2_-16">
          <mxGeometry x="20" y="20" width="120" height="80" as="geometry" />
        </mxCell>
        <mxCell id="XFZ9LQP_6vd32AAqSW2_-15" value="" style="ellipse;whiteSpace=wrap;html=1;" vertex="1" parent="XFZ9LQP_6vd32AAqSW2_-16">
          <mxGeometry x="10" y="10" width="120" height="80" as="geometry" />
        </mxCell>
        <mxCell id="XFZ9LQP_6vd32AAqSW2_-10" value="단일 접속 성능 측정 client(using ffmpeg)" style="ellipse;whiteSpace=wrap;html=1;" vertex="1" parent="XFZ9LQP_6vd32AAqSW2_-16">
          <mxGeometry width="120" height="80" as="geometry" />
        </mxCell>
        <mxCell id="XFZ9LQP_6vd32AAqSW2_-18" value="192.168.15.30" style="text;html=1;strokeColor=none;fillColor=none;align=center;verticalAlign=middle;whiteSpace=wrap;rounded=0;" vertex="1" parent="1">
          <mxGeometry x="700" y="335" width="100" height="20" as="geometry" />
        </mxCell>
        <mxCell id="4dWI_uFi1t8rFsBz-r9V-2" value="" style="shape=flexArrow;endArrow=classic;html=1;fillColor=#dae8fc;strokeColor=#6c8ebf;" edge="1" parent="1" source="XFZ9LQP_6vd32AAqSW2_-5" target="XFZ9LQP_6vd32AAqSW2_-7">
          <mxGeometry width="50" height="50" relative="1" as="geometry">
            <mxPoint x="640" y="600" as="sourcePoint" />
            <mxPoint x="690" y="550" as="targetPoint" />
          </mxGeometry>
        </mxCell>
        <mxCell id="4dWI_uFi1t8rFsBz-r9V-3" value="" style="shape=flexArrow;endArrow=classic;html=1;fillColor=#dae8fc;strokeColor=#6c8ebf;" edge="1" parent="1" source="XFZ9LQP_6vd32AAqSW2_-7" target="XFZ9LQP_6vd32AAqSW2_-10">
          <mxGeometry width="50" height="50" relative="1" as="geometry">
            <mxPoint x="330" y="560" as="sourcePoint" />
            <mxPoint x="380" y="510" as="targetPoint" />
          </mxGeometry>
        </mxCell>
        <mxCell id="FcOOeUxXPdtkOmWeGGfr-2" value="10Gbps" style="text;html=1;strokeColor=none;fillColor=none;align=center;verticalAlign=middle;whiteSpace=wrap;rounded=0;" vertex="1" parent="1">
          <mxGeometry x="310" y="330" width="40" height="20" as="geometry" />
        </mxCell>
        <mxCell id="FcOOeUxXPdtkOmWeGGfr-3" value="100Mbps" style="text;html=1;strokeColor=none;fillColor=none;align=center;verticalAlign=middle;whiteSpace=wrap;rounded=0;" vertex="1" parent="1">
          <mxGeometry x="610" y="340" width="60" height="20" as="geometry" />
        </mxCell>
      </root>
    </mxGraphModel>
  </diagram>
  <diagram id="hkR3sn4cDAYCGyZjZpPD" name="다중 접속 환경 이용">
    <mxGraphModel dx="861" dy="708" grid="1" gridSize="10" guides="1" tooltips="1" connect="1" arrows="1" fold="1" page="1" pageScale="1" pageWidth="827" pageHeight="1169" math="0" shadow="0">
      <root>
        <mxCell id="Fjwc3TazdKmqD54wbONH-0" />
        <mxCell id="Fjwc3TazdKmqD54wbONH-1" parent="Fjwc3TazdKmqD54wbONH-0" />
        <mxCell id="8pJwLT9OswFstVxDtRX_-0" value="" style="rounded=1;whiteSpace=wrap;html=1;" vertex="1" parent="Fjwc3TazdKmqD54wbONH-1">
          <mxGeometry x="380" y="170" width="230" height="170" as="geometry" />
        </mxCell>
        <mxCell id="8pJwLT9OswFstVxDtRX_-1" value="192.168.15.71" style="text;html=1;strokeColor=none;fillColor=none;align=center;verticalAlign=middle;whiteSpace=wrap;rounded=0;" vertex="1" parent="Fjwc3TazdKmqD54wbONH-1">
          <mxGeometry x="510" y="180" width="100" height="20" as="geometry" />
        </mxCell>
        <mxCell id="8pJwLT9OswFstVxDtRX_-2" value="192.168.17.2" style="text;html=1;strokeColor=none;fillColor=none;align=center;verticalAlign=middle;whiteSpace=wrap;rounded=0;" vertex="1" parent="Fjwc3TazdKmqD54wbONH-1">
          <mxGeometry x="380" y="180" width="100" height="20" as="geometry" />
        </mxCell>
        <mxCell id="8pJwLT9OswFstVxDtRX_-3" value="media server" style="rounded=1;whiteSpace=wrap;html=1;" vertex="1" parent="Fjwc3TazdKmqD54wbONH-1">
          <mxGeometry x="690" y="220" width="120" height="80" as="geometry" />
        </mxCell>
        <mxCell id="8pJwLT9OswFstVxDtRX_-5" value="proxy server" style="ellipse;whiteSpace=wrap;html=1;" vertex="1" parent="Fjwc3TazdKmqD54wbONH-1">
          <mxGeometry x="435" y="230" width="120" height="80" as="geometry" />
        </mxCell>
        <mxCell id="8pJwLT9OswFstVxDtRX_-6" value="" style="rounded=1;whiteSpace=wrap;html=1;" vertex="1" parent="Fjwc3TazdKmqD54wbONH-1">
          <mxGeometry x="80" y="160" width="230" height="210" as="geometry" />
        </mxCell>
        <mxCell id="8pJwLT9OswFstVxDtRX_-7" value="192.168.17.1" style="text;html=1;strokeColor=none;fillColor=none;align=center;verticalAlign=middle;whiteSpace=wrap;rounded=0;" vertex="1" parent="Fjwc3TazdKmqD54wbONH-1">
          <mxGeometry x="140" y="180" width="100" height="20" as="geometry" />
        </mxCell>
        <mxCell id="8pJwLT9OswFstVxDtRX_-9" value="192.168.15.30" style="text;html=1;strokeColor=none;fillColor=none;align=center;verticalAlign=middle;whiteSpace=wrap;rounded=0;" vertex="1" parent="Fjwc3TazdKmqD54wbONH-1">
          <mxGeometry x="700" y="220" width="100" height="20" as="geometry" />
        </mxCell>
        <mxCell id="8pJwLT9OswFstVxDtRX_-10" value="다중 접속 성능 측정 client (using live555)" style="ellipse;whiteSpace=wrap;html=1;" vertex="1" parent="Fjwc3TazdKmqD54wbONH-1">
          <mxGeometry x="130" y="230" width="120" height="80" as="geometry" />
        </mxCell>
        <mxCell id="m8TRtbLgluK5ZIM373d8-0" value="" style="shape=flexArrow;endArrow=classic;html=1;fillColor=#dae8fc;strokeColor=#6c8ebf;" edge="1" parent="Fjwc3TazdKmqD54wbONH-1" source="8pJwLT9OswFstVxDtRX_-5" target="8pJwLT9OswFstVxDtRX_-10">
          <mxGeometry width="50" height="50" relative="1" as="geometry">
            <mxPoint x="370" y="490" as="sourcePoint" />
            <mxPoint x="420" y="440" as="targetPoint" />
          </mxGeometry>
        </mxCell>
        <mxCell id="m8TRtbLgluK5ZIM373d8-1" value="" style="shape=flexArrow;endArrow=classic;html=1;fillColor=#dae8fc;strokeColor=#6c8ebf;" edge="1" parent="Fjwc3TazdKmqD54wbONH-1" source="8pJwLT9OswFstVxDtRX_-3" target="8pJwLT9OswFstVxDtRX_-5">
          <mxGeometry width="50" height="50" relative="1" as="geometry">
            <mxPoint x="770" y="440" as="sourcePoint" />
            <mxPoint x="585" y="440" as="targetPoint" />
          </mxGeometry>
        </mxCell>
        <mxCell id="ZIKvvayDOVXVrU8kE1or-0" value="10Gbps" style="text;html=1;strokeColor=none;fillColor=none;align=center;verticalAlign=middle;whiteSpace=wrap;rounded=0;" vertex="1" parent="Fjwc3TazdKmqD54wbONH-1">
          <mxGeometry x="320" y="230" width="40" height="20" as="geometry" />
        </mxCell>
        <mxCell id="ZIKvvayDOVXVrU8kE1or-1" value="100Mbps" style="text;html=1;strokeColor=none;fillColor=none;align=center;verticalAlign=middle;whiteSpace=wrap;rounded=0;" vertex="1" parent="Fjwc3TazdKmqD54wbONH-1">
          <mxGeometry x="630" y="230" width="50" height="20" as="geometry" />
        </mxCell>
      </root>
    </mxGraphModel>
  </diagram>
  <diagram id="uhgjBJ7_JR388hK3bsBW" name="다중 사이트 접속 환경">
    <mxGraphModel dx="861" dy="708" grid="1" gridSize="10" guides="1" tooltips="1" connect="1" arrows="1" fold="1" page="1" pageScale="1" pageWidth="827" pageHeight="1169" math="0" shadow="0">
      <root>
        <mxCell id="BUUrjIPQTUBlwi6Qux27-0" />
        <mxCell id="BUUrjIPQTUBlwi6Qux27-1" parent="BUUrjIPQTUBlwi6Qux27-0" />
        <mxCell id="BUUrjIPQTUBlwi6Qux27-2" value="" style="rounded=1;whiteSpace=wrap;html=1;" vertex="1" parent="BUUrjIPQTUBlwi6Qux27-1">
          <mxGeometry x="380" y="190" width="230" height="170" as="geometry" />
        </mxCell>
        <mxCell id="BUUrjIPQTUBlwi6Qux27-3" value="192.168.15.71" style="text;html=1;strokeColor=none;fillColor=none;align=center;verticalAlign=middle;whiteSpace=wrap;rounded=0;" vertex="1" parent="BUUrjIPQTUBlwi6Qux27-1">
          <mxGeometry x="510" y="220" width="100" height="20" as="geometry" />
        </mxCell>
        <mxCell id="BUUrjIPQTUBlwi6Qux27-4" value="192.168.17.2" style="text;html=1;strokeColor=none;fillColor=none;align=center;verticalAlign=middle;whiteSpace=wrap;rounded=0;" vertex="1" parent="BUUrjIPQTUBlwi6Qux27-1">
          <mxGeometry x="380" y="220" width="100" height="20" as="geometry" />
        </mxCell>
        <mxCell id="BUUrjIPQTUBlwi6Qux27-7" value="proxy server" style="ellipse;whiteSpace=wrap;html=1;" vertex="1" parent="BUUrjIPQTUBlwi6Qux27-1">
          <mxGeometry x="435" y="250" width="120" height="80" as="geometry" />
        </mxCell>
        <mxCell id="cxo9fNkJwvbnUJtVLg4k-5" value="" style="group" vertex="1" connectable="0" parent="BUUrjIPQTUBlwi6Qux27-1">
          <mxGeometry x="80" y="110" width="230" height="340" as="geometry" />
        </mxCell>
        <mxCell id="BUUrjIPQTUBlwi6Qux27-8" value="" style="rounded=1;whiteSpace=wrap;html=1;" vertex="1" parent="cxo9fNkJwvbnUJtVLg4k-5">
          <mxGeometry width="230" height="340" as="geometry" />
        </mxCell>
        <mxCell id="BUUrjIPQTUBlwi6Qux27-9" value="192.168.17.1" style="text;html=1;strokeColor=none;fillColor=none;align=center;verticalAlign=middle;whiteSpace=wrap;rounded=0;" vertex="1" parent="cxo9fNkJwvbnUJtVLg4k-5">
          <mxGeometry x="60" y="20" width="100" height="20" as="geometry" />
        </mxCell>
        <mxCell id="BUUrjIPQTUBlwi6Qux27-12" value="다중 접속 성능 측정 client (using live555)" style="ellipse;whiteSpace=wrap;html=1;" vertex="1" parent="cxo9fNkJwvbnUJtVLg4k-5">
          <mxGeometry x="50" y="70" width="120" height="80" as="geometry" />
        </mxCell>
        <mxCell id="cxo9fNkJwvbnUJtVLg4k-0" value="다중 접속 성능 측정 client (using live555)" style="ellipse;whiteSpace=wrap;html=1;" vertex="1" parent="cxo9fNkJwvbnUJtVLg4k-5">
          <mxGeometry x="50" y="160" width="120" height="80" as="geometry" />
        </mxCell>
        <mxCell id="cxo9fNkJwvbnUJtVLg4k-1" value="다중 접속 성능 측정 client (using live555)" style="ellipse;whiteSpace=wrap;html=1;" vertex="1" parent="cxo9fNkJwvbnUJtVLg4k-5">
          <mxGeometry x="50" y="250" width="120" height="80" as="geometry" />
        </mxCell>
        <mxCell id="cxo9fNkJwvbnUJtVLg4k-6" value="" style="group" vertex="1" connectable="0" parent="BUUrjIPQTUBlwi6Qux27-1">
          <mxGeometry x="680" y="110" width="230" height="340" as="geometry" />
        </mxCell>
        <mxCell id="cxo9fNkJwvbnUJtVLg4k-7" value="" style="rounded=1;whiteSpace=wrap;html=1;" vertex="1" parent="cxo9fNkJwvbnUJtVLg4k-6">
          <mxGeometry width="230" height="340" as="geometry" />
        </mxCell>
        <mxCell id="cxo9fNkJwvbnUJtVLg4k-8" value="192.168.15.24" style="text;html=1;strokeColor=none;fillColor=none;align=center;verticalAlign=middle;whiteSpace=wrap;rounded=0;" vertex="1" parent="cxo9fNkJwvbnUJtVLg4k-6">
          <mxGeometry x="60" y="20" width="100" height="20" as="geometry" />
        </mxCell>
        <mxCell id="cxo9fNkJwvbnUJtVLg4k-9" value="다중 접속 성능 측정 client (using live555)" style="ellipse;whiteSpace=wrap;html=1;" vertex="1" parent="cxo9fNkJwvbnUJtVLg4k-6">
          <mxGeometry x="50" y="70" width="120" height="80" as="geometry" />
        </mxCell>
        <mxCell id="cxo9fNkJwvbnUJtVLg4k-10" value="다중 접속 성능 측정 client (using live555)" style="ellipse;whiteSpace=wrap;html=1;" vertex="1" parent="cxo9fNkJwvbnUJtVLg4k-6">
          <mxGeometry x="50" y="160" width="120" height="80" as="geometry" />
        </mxCell>
        <mxCell id="cxo9fNkJwvbnUJtVLg4k-11" value="다중 접속 성능 측정 client (using live555)" style="ellipse;whiteSpace=wrap;html=1;" vertex="1" parent="cxo9fNkJwvbnUJtVLg4k-6">
          <mxGeometry x="50" y="250" width="120" height="80" as="geometry" />
        </mxCell>
        <mxCell id="vgGqtEQ1BQVsptybYaGz-0" value="" style="shape=flexArrow;endArrow=classic;html=1;fillColor=#dae8fc;strokeColor=#6c8ebf;" edge="1" parent="BUUrjIPQTUBlwi6Qux27-1" source="BUUrjIPQTUBlwi6Qux27-7" target="cxo9fNkJwvbnUJtVLg4k-1">
          <mxGeometry width="50" height="50" relative="1" as="geometry">
            <mxPoint x="440" y="480" as="sourcePoint" />
            <mxPoint x="400" y="460" as="targetPoint" />
          </mxGeometry>
        </mxCell>
        <mxCell id="vgGqtEQ1BQVsptybYaGz-1" value="" style="shape=flexArrow;endArrow=classic;html=1;fillColor=#dae8fc;strokeColor=#6c8ebf;" edge="1" parent="BUUrjIPQTUBlwi6Qux27-1" source="BUUrjIPQTUBlwi6Qux27-7" target="cxo9fNkJwvbnUJtVLg4k-0">
          <mxGeometry width="50" height="50" relative="1" as="geometry">
            <mxPoint x="470" y="510" as="sourcePoint" />
            <mxPoint x="452.22739323334713" y="319.0327434240388" as="targetPoint" />
          </mxGeometry>
        </mxCell>
        <mxCell id="vgGqtEQ1BQVsptybYaGz-2" value="" style="shape=flexArrow;endArrow=classic;html=1;fillColor=#dae8fc;strokeColor=#6c8ebf;" edge="1" parent="BUUrjIPQTUBlwi6Qux27-1" source="BUUrjIPQTUBlwi6Qux27-7" target="BUUrjIPQTUBlwi6Qux27-12">
          <mxGeometry width="50" height="50" relative="1" as="geometry">
            <mxPoint x="360" y="160" as="sourcePoint" />
            <mxPoint x="462.22739323334713" y="329.0327434240388" as="targetPoint" />
          </mxGeometry>
        </mxCell>
        <mxCell id="MdC6Lm9sZ6NcO5XNqYiy-0" value="" style="shape=flexArrow;endArrow=classic;html=1;fillColor=#dae8fc;strokeColor=#6c8ebf;" edge="1" parent="BUUrjIPQTUBlwi6Qux27-1" source="BUUrjIPQTUBlwi6Qux27-7" target="cxo9fNkJwvbnUJtVLg4k-11">
          <mxGeometry width="50" height="50" relative="1" as="geometry">
            <mxPoint x="649.3412017982732" y="439.9988565006166" as="sourcePoint" />
            <mxPoint x="450.0026067666572" y="512.0772565759595" as="targetPoint" />
          </mxGeometry>
        </mxCell>
        <mxCell id="MdC6Lm9sZ6NcO5XNqYiy-1" value="" style="shape=flexArrow;endArrow=classic;html=1;fillColor=#dae8fc;strokeColor=#6c8ebf;" edge="1" parent="BUUrjIPQTUBlwi6Qux27-1" source="BUUrjIPQTUBlwi6Qux27-7" target="cxo9fNkJwvbnUJtVLg4k-10">
          <mxGeometry width="50" height="50" relative="1" as="geometry">
            <mxPoint x="462.1112017982732" y="328.8888565006166" as="sourcePoint" />
            <mxPoint x="262.7726067666572" y="400.9672565759595" as="targetPoint" />
          </mxGeometry>
        </mxCell>
        <mxCell id="MdC6Lm9sZ6NcO5XNqYiy-2" value="" style="shape=flexArrow;endArrow=classic;html=1;fillColor=#dae8fc;strokeColor=#6c8ebf;" edge="1" parent="BUUrjIPQTUBlwi6Qux27-1" source="BUUrjIPQTUBlwi6Qux27-7" target="cxo9fNkJwvbnUJtVLg4k-9">
          <mxGeometry width="50" height="50" relative="1" as="geometry">
            <mxPoint x="472.1112017982732" y="338.8888565006166" as="sourcePoint" />
            <mxPoint x="272.7726067666572" y="410.9672565759595" as="targetPoint" />
          </mxGeometry>
        </mxCell>
        <mxCell id="MdC6Lm9sZ6NcO5XNqYiy-3" value="" style="shape=flexArrow;endArrow=classic;html=1;fillColor=#dae8fc;strokeColor=#6c8ebf;" edge="1" parent="BUUrjIPQTUBlwi6Qux27-1" source="BUUrjIPQTUBlwi6Qux27-5" target="BUUrjIPQTUBlwi6Qux27-7">
          <mxGeometry width="50" height="50" relative="1" as="geometry">
            <mxPoint x="557.3982895450054" y="319.48696718615895" as="sourcePoint" />
            <mxPoint x="747.6345111726068" y="390.4738855219889" as="targetPoint" />
          </mxGeometry>
        </mxCell>
        <mxCell id="p47qT8-LsNAnAkikmj5f-0" value="" style="group" vertex="1" connectable="0" parent="BUUrjIPQTUBlwi6Qux27-1">
          <mxGeometry x="435" y="70" width="120" height="80" as="geometry" />
        </mxCell>
        <mxCell id="BUUrjIPQTUBlwi6Qux27-5" value="media server" style="rounded=1;whiteSpace=wrap;html=1;" vertex="1" parent="p47qT8-LsNAnAkikmj5f-0">
          <mxGeometry width="120" height="80" as="geometry" />
        </mxCell>
        <mxCell id="BUUrjIPQTUBlwi6Qux27-11" value="192.168.15.30" style="text;html=1;strokeColor=none;fillColor=none;align=center;verticalAlign=middle;whiteSpace=wrap;rounded=0;" vertex="1" parent="p47qT8-LsNAnAkikmj5f-0">
          <mxGeometry x="10" width="100" height="20" as="geometry" />
        </mxCell>
        <mxCell id="p47qT8-LsNAnAkikmj5f-1" value="..." style="text;html=1;strokeColor=none;fillColor=none;align=center;verticalAlign=middle;whiteSpace=wrap;rounded=0;fontStyle=1" vertex="1" parent="BUUrjIPQTUBlwi6Qux27-1">
          <mxGeometry x="500" y="160" width="40" height="20" as="geometry" />
        </mxCell>
      </root>
    </mxGraphModel>
  </diagram>
  <diagram id="AcDFYBQOCA0mSE_7-_PF" name="Load Balancer 사용">
    <mxGraphModel dx="861" dy="708" grid="1" gridSize="10" guides="1" tooltips="1" connect="1" arrows="1" fold="1" page="1" pageScale="1" pageWidth="827" pageHeight="1169" math="0" shadow="0">
      <root>
        <mxCell id="hHD968hnARFrCfqBzCk8-0" />
        <mxCell id="hHD968hnARFrCfqBzCk8-1" parent="hHD968hnARFrCfqBzCk8-0" />
        <mxCell id="r4-z6pHgullEZhp2e9bd-0" value="" style="rounded=1;whiteSpace=wrap;html=1;" vertex="1" parent="hHD968hnARFrCfqBzCk8-1">
          <mxGeometry x="340" y="190" width="310" height="370" as="geometry" />
        </mxCell>
        <mxCell id="r4-z6pHgullEZhp2e9bd-2" value="192.168.17.2" style="text;html=1;strokeColor=none;fillColor=none;align=center;verticalAlign=middle;whiteSpace=wrap;rounded=0;" vertex="1" parent="hHD968hnARFrCfqBzCk8-1">
          <mxGeometry x="380" y="200" width="100" height="20" as="geometry" />
        </mxCell>
        <mxCell id="r4-z6pHgullEZhp2e9bd-4" value="Load balancer" style="ellipse;whiteSpace=wrap;html=1;" vertex="1" parent="hHD968hnARFrCfqBzCk8-1">
          <mxGeometry x="435" y="250" width="120" height="80" as="geometry" />
        </mxCell>
        <mxCell id="r4-z6pHgullEZhp2e9bd-6" value="" style="group" vertex="1" connectable="0" parent="hHD968hnARFrCfqBzCk8-1">
          <mxGeometry x="80" y="110" width="230" height="340" as="geometry" />
        </mxCell>
        <mxCell id="r4-z6pHgullEZhp2e9bd-7" value="" style="rounded=1;whiteSpace=wrap;html=1;" vertex="1" parent="r4-z6pHgullEZhp2e9bd-6">
          <mxGeometry width="230" height="340" as="geometry" />
        </mxCell>
        <mxCell id="r4-z6pHgullEZhp2e9bd-8" value="192.168.17.1" style="text;html=1;strokeColor=none;fillColor=none;align=center;verticalAlign=middle;whiteSpace=wrap;rounded=0;" vertex="1" parent="r4-z6pHgullEZhp2e9bd-6">
          <mxGeometry x="60" y="20" width="100" height="20" as="geometry" />
        </mxCell>
        <mxCell id="r4-z6pHgullEZhp2e9bd-9" value="다중 접속 성능 측정 client (using live555)" style="ellipse;whiteSpace=wrap;html=1;" vertex="1" parent="r4-z6pHgullEZhp2e9bd-6">
          <mxGeometry x="50" y="70" width="120" height="80" as="geometry" />
        </mxCell>
        <mxCell id="r4-z6pHgullEZhp2e9bd-10" value="다중 접속 성능 측정 client (using live555)" style="ellipse;whiteSpace=wrap;html=1;" vertex="1" parent="r4-z6pHgullEZhp2e9bd-6">
          <mxGeometry x="50" y="160" width="120" height="80" as="geometry" />
        </mxCell>
        <mxCell id="r4-z6pHgullEZhp2e9bd-11" value="다중 접속 성능 측정 client (using live555)" style="ellipse;whiteSpace=wrap;html=1;" vertex="1" parent="r4-z6pHgullEZhp2e9bd-6">
          <mxGeometry x="50" y="250" width="120" height="80" as="geometry" />
        </mxCell>
        <mxCell id="r4-z6pHgullEZhp2e9bd-18" value="" style="shape=flexArrow;endArrow=classic;html=1;fillColor=#dae8fc;strokeColor=#6c8ebf;" edge="1" parent="hHD968hnARFrCfqBzCk8-1" source="r4-z6pHgullEZhp2e9bd-4" target="r4-z6pHgullEZhp2e9bd-11">
          <mxGeometry width="50" height="50" relative="1" as="geometry">
            <mxPoint x="440" y="480" as="sourcePoint" />
            <mxPoint x="400" y="460" as="targetPoint" />
          </mxGeometry>
        </mxCell>
        <mxCell id="r4-z6pHgullEZhp2e9bd-19" value="" style="shape=flexArrow;endArrow=classic;html=1;fillColor=#dae8fc;strokeColor=#6c8ebf;" edge="1" parent="hHD968hnARFrCfqBzCk8-1" source="r4-z6pHgullEZhp2e9bd-4" target="r4-z6pHgullEZhp2e9bd-10">
          <mxGeometry width="50" height="50" relative="1" as="geometry">
            <mxPoint x="470" y="510" as="sourcePoint" />
            <mxPoint x="452.22739323334713" y="319.0327434240388" as="targetPoint" />
          </mxGeometry>
        </mxCell>
        <mxCell id="r4-z6pHgullEZhp2e9bd-20" value="" style="shape=flexArrow;endArrow=classic;html=1;fillColor=#dae8fc;strokeColor=#6c8ebf;" edge="1" parent="hHD968hnARFrCfqBzCk8-1" source="r4-z6pHgullEZhp2e9bd-4" target="r4-z6pHgullEZhp2e9bd-9">
          <mxGeometry width="50" height="50" relative="1" as="geometry">
            <mxPoint x="360" y="160" as="sourcePoint" />
            <mxPoint x="462.22739323334713" y="329.0327434240388" as="targetPoint" />
          </mxGeometry>
        </mxCell>
        <mxCell id="r4-z6pHgullEZhp2e9bd-25" value="proxy server" style="ellipse;whiteSpace=wrap;html=1;" vertex="1" parent="hHD968hnARFrCfqBzCk8-1">
          <mxGeometry x="370" y="360" width="120" height="80" as="geometry" />
        </mxCell>
        <mxCell id="r4-z6pHgullEZhp2e9bd-26" value="proxy server" style="ellipse;whiteSpace=wrap;html=1;" vertex="1" parent="hHD968hnARFrCfqBzCk8-1">
          <mxGeometry x="510" y="360" width="120" height="80" as="geometry" />
        </mxCell>
        <mxCell id="r4-z6pHgullEZhp2e9bd-27" value="proxy server" style="ellipse;whiteSpace=wrap;html=1;" vertex="1" parent="hHD968hnARFrCfqBzCk8-1">
          <mxGeometry x="435" y="450" width="120" height="80" as="geometry" />
        </mxCell>
        <mxCell id="r4-z6pHgullEZhp2e9bd-28" value="" style="endArrow=none;html=1;" edge="1" parent="hHD968hnARFrCfqBzCk8-1" source="r4-z6pHgullEZhp2e9bd-25" target="r4-z6pHgullEZhp2e9bd-4">
          <mxGeometry width="50" height="50" relative="1" as="geometry">
            <mxPoint x="450" y="390" as="sourcePoint" />
            <mxPoint x="500" y="340" as="targetPoint" />
          </mxGeometry>
        </mxCell>
        <mxCell id="r4-z6pHgullEZhp2e9bd-29" value="" style="endArrow=none;html=1;" edge="1" parent="hHD968hnARFrCfqBzCk8-1" source="r4-z6pHgullEZhp2e9bd-27" target="r4-z6pHgullEZhp2e9bd-4">
          <mxGeometry width="50" height="50" relative="1" as="geometry">
            <mxPoint x="730" y="590" as="sourcePoint" />
            <mxPoint x="780" y="540" as="targetPoint" />
          </mxGeometry>
        </mxCell>
        <mxCell id="r4-z6pHgullEZhp2e9bd-30" value="" style="endArrow=none;html=1;" edge="1" parent="hHD968hnARFrCfqBzCk8-1" source="r4-z6pHgullEZhp2e9bd-26" target="r4-z6pHgullEZhp2e9bd-4">
          <mxGeometry width="50" height="50" relative="1" as="geometry">
            <mxPoint x="462.1944208869709" y="372.83724874739755" as="sourcePoint" />
            <mxPoint x="483.0085288970499" y="337.2163357126851" as="targetPoint" />
          </mxGeometry>
        </mxCell>
        <mxCell id="sX-aYrpyXawdo6pY_G1c-4" value="" style="group;" vertex="1" connectable="0" parent="hHD968hnARFrCfqBzCk8-1">
          <mxGeometry x="700" y="60" width="250" height="500" as="geometry" />
        </mxCell>
        <mxCell id="sX-aYrpyXawdo6pY_G1c-3" value="" style="rounded=1;whiteSpace=wrap;html=1;" vertex="1" parent="sX-aYrpyXawdo6pY_G1c-4">
          <mxGeometry width="250" height="500" as="geometry" />
        </mxCell>
        <mxCell id="r4-z6pHgullEZhp2e9bd-12" value="" style="group" vertex="1" connectable="0" parent="sX-aYrpyXawdo6pY_G1c-4">
          <mxGeometry x="10" y="130" width="230" height="340" as="geometry" />
        </mxCell>
        <mxCell id="r4-z6pHgullEZhp2e9bd-13" value="" style="rounded=1;whiteSpace=wrap;html=1;" vertex="1" parent="r4-z6pHgullEZhp2e9bd-12">
          <mxGeometry width="230" height="340" as="geometry" />
        </mxCell>
        <mxCell id="r4-z6pHgullEZhp2e9bd-15" value="다중 접속 성능 측정 client (using live555)" style="ellipse;whiteSpace=wrap;html=1;" vertex="1" parent="r4-z6pHgullEZhp2e9bd-12">
          <mxGeometry x="50" y="70" width="120" height="80" as="geometry" />
        </mxCell>
        <mxCell id="r4-z6pHgullEZhp2e9bd-16" value="다중 접속 성능 측정 client (using live555)" style="ellipse;whiteSpace=wrap;html=1;" vertex="1" parent="r4-z6pHgullEZhp2e9bd-12">
          <mxGeometry x="50" y="160" width="120" height="80" as="geometry" />
        </mxCell>
        <mxCell id="r4-z6pHgullEZhp2e9bd-17" value="다중 접속 성능 측정 client (using live555)" style="ellipse;whiteSpace=wrap;html=1;" vertex="1" parent="r4-z6pHgullEZhp2e9bd-12">
          <mxGeometry x="50" y="250" width="120" height="80" as="geometry" />
        </mxCell>
        <mxCell id="sX-aYrpyXawdo6pY_G1c-0" value="" style="group" vertex="1" connectable="0" parent="sX-aYrpyXawdo6pY_G1c-4">
          <mxGeometry x="10" y="30" width="120" height="80" as="geometry" />
        </mxCell>
        <mxCell id="r4-z6pHgullEZhp2e9bd-3" value="media server" style="rounded=1;whiteSpace=wrap;html=1;" vertex="1" parent="sX-aYrpyXawdo6pY_G1c-0">
          <mxGeometry width="120" height="80" as="geometry" />
        </mxCell>
        <mxCell id="sX-aYrpyXawdo6pY_G1c-6" value="192.168.15.24" style="text;html=1;strokeColor=none;fillColor=none;align=center;verticalAlign=middle;whiteSpace=wrap;rounded=0;" vertex="1" parent="sX-aYrpyXawdo6pY_G1c-4">
          <mxGeometry x="150" y="20" width="90" height="20" as="geometry" />
        </mxCell>
        <mxCell id="r4-z6pHgullEZhp2e9bd-21" value="" style="shape=flexArrow;endArrow=classic;html=1;fillColor=#dae8fc;strokeColor=#6c8ebf;" edge="1" parent="hHD968hnARFrCfqBzCk8-1" source="r4-z6pHgullEZhp2e9bd-4" target="r4-z6pHgullEZhp2e9bd-17">
          <mxGeometry width="50" height="50" relative="1" as="geometry">
            <mxPoint x="649.3412017982732" y="439.9988565006166" as="sourcePoint" />
            <mxPoint x="450.0026067666572" y="512.0772565759595" as="targetPoint" />
          </mxGeometry>
        </mxCell>
        <mxCell id="r4-z6pHgullEZhp2e9bd-22" value="" style="shape=flexArrow;endArrow=classic;html=1;fillColor=#dae8fc;strokeColor=#6c8ebf;" edge="1" parent="hHD968hnARFrCfqBzCk8-1" source="r4-z6pHgullEZhp2e9bd-4" target="r4-z6pHgullEZhp2e9bd-16">
          <mxGeometry width="50" height="50" relative="1" as="geometry">
            <mxPoint x="462.1112017982732" y="328.8888565006166" as="sourcePoint" />
            <mxPoint x="262.7726067666572" y="400.9672565759595" as="targetPoint" />
          </mxGeometry>
        </mxCell>
        <mxCell id="r4-z6pHgullEZhp2e9bd-23" value="" style="shape=flexArrow;endArrow=classic;html=1;fillColor=#dae8fc;strokeColor=#6c8ebf;" edge="1" parent="hHD968hnARFrCfqBzCk8-1" source="r4-z6pHgullEZhp2e9bd-4" target="r4-z6pHgullEZhp2e9bd-15">
          <mxGeometry width="50" height="50" relative="1" as="geometry">
            <mxPoint x="472.1112017982732" y="338.8888565006166" as="sourcePoint" />
            <mxPoint x="272.7726067666572" y="410.9672565759595" as="targetPoint" />
          </mxGeometry>
        </mxCell>
        <mxCell id="r4-z6pHgullEZhp2e9bd-24" value="" style="shape=flexArrow;endArrow=classic;html=1;fillColor=#dae8fc;strokeColor=#6c8ebf;" edge="1" parent="hHD968hnARFrCfqBzCk8-1" source="r4-z6pHgullEZhp2e9bd-3" target="r4-z6pHgullEZhp2e9bd-4">
          <mxGeometry width="50" height="50" relative="1" as="geometry">
            <mxPoint x="557.3982895450054" y="319.48696718615895" as="sourcePoint" />
            <mxPoint x="747.6345111726068" y="390.4738855219889" as="targetPoint" />
          </mxGeometry>
        </mxCell>
        <mxCell id="r4-z6pHgullEZhp2e9bd-1" value="192.168.15.71" style="text;html=1;strokeColor=none;fillColor=none;align=center;verticalAlign=middle;whiteSpace=wrap;rounded=0;" vertex="1" parent="hHD968hnARFrCfqBzCk8-1">
          <mxGeometry x="490" y="200" width="100" height="20" as="geometry" />
        </mxCell>
        <mxCell id="DxvmGU8j3h2cuACC0W1Q-0" value="..." style="text;html=1;strokeColor=none;fillColor=none;align=center;verticalAlign=middle;whiteSpace=wrap;rounded=0;fontStyle=1" vertex="1" parent="hHD968hnARFrCfqBzCk8-1">
          <mxGeometry x="640" y="150" width="40" height="20" as="geometry" />
        </mxCell>
      </root>
    </mxGraphModel>
  </diagram>
</mxfile>
